<?xml version="1.0" encoding="iso-8859-1"?>
<!-- Uploaded to: SVG Repo, www.svgrepo.com, Generator: SVG Repo Mixer Tools -->
<svg height="800px" width="800px" version="1.1" id="Layer_1" xmlns="http://www.w3.org/2000/svg" xmlns:xlink="http://www.w3.org/1999/xlink" 
	 viewBox="0 0 385.072 385.072" xml:space="preserve">
<g>
	<g>
		<path style="fill:#FFDB77;" d="M174.089,234.651c-11.036,6.376-18.457,18.292-18.457,31.951H7.5
			c0-68.479,37.207-128.281,92.505-160.268L174.089,234.651z"/>
		<path style="fill:#FFDB77;" d="M285.069,106.334l-74.084,128.317c-11.367-6.597-25.533-6.594-36.895,0l-74.084-128.317
			C157.045,73.325,227.908,73.255,285.069,106.334z"/>
		<path style="fill:#FF7876;" d="M377.573,266.603H229.441c0-0.816-0.027-1.633-0.073-2.44l45.537-43.537l-60.985,15.916
			c-0.945-0.679-1.926-1.303-2.936-1.89l74.084-128.317C340.366,138.322,377.573,198.123,377.573,266.603z"/>
		<path style="fill:#FFDB77;" d="M274.905,220.625l-45.537,43.537c-0.752-11.393-6.669-21.374-15.448-27.621L274.905,220.625z"/>
		<g>
			<path style="fill:#FFDB77;" d="M192.537,303.507c-20.242,0-36.905-16.397-36.905-36.905c0-13.659,7.421-25.576,18.457-31.951
				c11.368-6.597,25.533-6.594,36.895,0c1.009,0.587,1.991,1.211,2.936,1.89C243.202,257.378,228.229,303.507,192.537,303.507z"/>
			<path style="fill:#414042;" d="M288.824,99.842c-0.001-0.001-0.003-0.001-0.004-0.002
				c-59.388-34.366-133.172-34.368-192.561-0.003c-0.003,0.002-0.007,0.003-0.01,0.005C38.527,133.231,0,195.607,0,266.603
				c0,4.143,3.358,7.5,7.5,7.5h141.278c3.576,20.924,21.831,36.904,43.758,36.904c22.02,0,39.793-15.259,43.698-36.904h141.338
				c4.142,0,7.5-3.357,7.5-7.5C385.073,195.579,346.522,133.217,288.824,99.842z M233.704,249.64
				c-1.333-3.229-3.06-6.304-5.168-9.162l20.29-5.295L233.704,249.64z M274.747,109.211l-66.823,115.74
				c-9.574-3.541-20.619-3.758-30.775,0l-66.823-115.74C161.676,82.345,223.398,82.345,274.747,109.211z M97.342,116.723
				l66.824,115.741c-8.205,6.83-13.633,16.464-15.39,26.639H15.158C17.673,199.393,49.617,147.1,97.342,116.723z M192.537,296.007
				c-16.214,0-29.405-13.19-29.405-29.404c0-16.191,13.198-29.407,29.407-29.407c15.852,0,29.188,12.725,29.396,29.015
				C221.868,281.12,210.877,296.007,192.537,296.007z M245.513,259.103l34.575-33.057c5.568-5.325,0.386-14.622-7.077-12.678
				l-48.365,12.622l63.086-109.268c47.719,30.373,79.669,82.663,82.184,142.38H245.513V259.103z"/>
		</g>
	</g>
	<g>
		<path style="fill:#FFDB77;" d="M322.983,180.09c-7.584-0.022-13.74,6.12-13.74,13.699c0-7.579-6.155-13.721-13.739-13.699
			c-11.927,0.034-18.191,14.449-9.861,23.162l-0.004,0.002l18.775,19.516c2.636,2.74,7.021,2.74,9.657,0l18.775-19.516l-0.004-0.002
			C341.185,194.528,334.894,180.124,322.983,180.09z"/>
	</g>
</g>
</svg>