<svg xmlns="http://www.w3.org/2000/svg" viewBox="0 0 400 400" fill="none" shape-rendering="auto" width="512" height="512"><metadata xmlns:rdf="http://www.w3.org/1999/02/22-rdf-syntax-ns#" xmlns:xsi="http://www.w3.org/2001/XMLSchema-instance" xmlns:dc="http://purl.org/dc/elements/1.1/" xmlns:dcterms="http://purl.org/dc/terms/"><rdf:RDF><rdf:Description><dc:title>Adventurer Neutral</dc:title><dc:creator>Lisa Wischofsky</dc:creator><dc:source xsi:type="dcterms:URI">https://www.figma.com/community/file/1184595184137881796</dc:source><dcterms:license xsi:type="dcterms:URI">https://creativecommons.org/licenses/by/4.0/</dcterms:license><dc:rights>Remix of „Adventurer Neutral” (https://www.figma.com/community/file/1184595184137881796) by „Lisa Wischofsky”, licensed under „CC BY 4.0” (https://creativecommons.org/licenses/by/4.0/)</dc:rights></rdf:Description></rdf:RDF></metadata><mask id="viewboxMask"><rect width="400" height="400" rx="0" ry="0" x="0" y="0" fill="#fff" /></mask><g mask="url(#viewboxMask)"><rect fill="#9897d2" width="400" height="400" x="0" y="0" /><g transform="translate(-279 -322)"><path d="M589.95 433.05c11.85 6.92 21.04 17.5 26.7 29.97 5.94-3.13 11.68-6.68 17.7-9.63 1.78-.95 4.39.55 3.97 2.62.2 1.48-2.02 2.5-3.06 3.23-5.45 3-10.88 6.04-16.34 9.03 1.7 6.87 3.23 13.6 3.24 20.73-.06 12.85-3.69 25.61-10.87 36.3a65.88 65.88 0 0 1-31.79 25.28 65.87 65.87 0 0 1-38.5 2.03 65.1 65.1 0 0 1-40-29.6 63.2 63.2 0 0 1-9.31-33 64.44 64.44 0 0 1 15.41-42.92c9.58-11.27 23.24-19.42 37.87-21.9a65.18 65.18 0 0 1 44.98 7.86Z" fill="#000"/><path d="M549.2 430.27a59.7 59.7 0 0 1 44.36 12.14c14.46 11.19 23.27 29.3 22.81 47.6.02 22.44-13.8 43.89-34.2 53.21-10.96 5.08-23.24 7-35.17 4.83a59.56 59.56 0 0 1-40.74-27.3 61.53 61.53 0 0 1-8.98-28.72 60.36 60.36 0 0 1 13.88-40.9 59.51 59.51 0 0 1 38.04-20.85Z" fill="#fff"/><path d="M390.01 446.91a55.03 55.03 0 0 1 34.43 14.65c10.09 9.4 16.54 22.67 17.3 36.47a54.58 54.58 0 0 1-8.02 32.68 54.92 54.92 0 0 1-36.73 25.15 54.94 54.94 0 0 1-63.71-42.04c-2.36-9.4-1.56-18.93 1.03-28.19a605.7 605.7 0 0 0-11.32-4.5c-1.9-.78-4-1.44-5.35-3.08-.4-2.4.76-3.92 3.2-3.62 5.21 1.25 10 4.2 15.18 5.57 1.39-1.65 2.24-3.81 3.31-5.68 10.02-17.81 30.31-28.73 50.69-27.4Z" fill="#000"/><path d="M376.5 453.66c18.63-4.25 38.76 3.44 50 18.81a50.84 50.84 0 0 1 9.74 26.52c.67 13.61-4.44 27.48-14.06 37.18A49.44 49.44 0 0 1 392 550.83c-19.94 2.3-40.08-8.85-49.01-26.78a49.3 49.3 0 0 1 2.37-48.68 49.32 49.32 0 0 1 31.15-21.7Z" fill="#fff"/><path d="M578.28 465.43c6.24-.76 12.7.82 17.74 4.57 6.29 4.65 10.27 12.14 10.18 20a27.74 27.74 0 0 1-4.57 13.63c-4.1 6.13-11.27 10.06-18.6 10.54-8.2.5-16.42-3.28-21.25-9.97-6.02-7.97-6.24-19.8-.63-28.03a24.74 24.74 0 0 1 17.13-10.74ZM408.45 478.49c7.22-.86 14.8 2 19.61 7.47A21.98 21.98 0 0 1 433.8 502c.04 12-10.69 22.79-22.8 22.28-12.1.1-22.88-10.05-22.87-22.26-.7-11.81 8.67-22.32 20.32-23.53Z" fill="#000"/></g><g transform="translate(-279 -322)"><path d="M613.54 401.51c1.6 1 1.08 2.86 1.24 4.48-.06 11.34-.05 22.7-.12 34.04.32 2.75-2.42 4.22-4.62 5-40 13.74-80.12 27.25-120.05 41.12-2.53.2-2.84-1.75-3.5-3.66-1.64-6-3.31-11.98-5.02-17.95.97 5.75.98 11.66 1.36 17.47-.02 1.44.45 3.94-1 4.85-1.94 1.4-4.06.13-4.59-2.03-3.64-12.73-7.02-25.58-10.66-38.32-.39-1.83-.65-3.9 1.36-4.88 2.11-.5 3.41.47 4 2.44 1.27 4.55 2.55 9.11 3.68 13.7-.73-5.24-.94-10.5-1.18-15.77 0-1.27-.14-3.73 1.66-3.8 1.47-.25 2.98-.37 4.43-.7 41.23-11.75 82.37-23.45 123.6-35.23 3.27-.87 6.02-2.08 9.4-.76ZM324 433.87c13.64 1.39 27.36 1.44 41 2.58 21.04 1.05 42.11 2.67 63.14 3.42 7.8.78 15.61 1.12 23.44 1.68 2.77 2.19 1.08 8.08 1.91 11.33.56-2.97.18-6.9 1.92-9.46a2.85 2.85 0 0 1 4.76 2.56c-2.36 14.03-4.77 28.14-7.02 42.18-.8 2.93-4.48 2.56-5.29-.15-.27-4.92-.21-9.89-.28-14.83-1.03 4.3-1.47 8.69-2.47 12.98-.42 1.64-1.16 2.84-3.1 2.4-39.47-6.89-79.39-14.23-118.86-21.3-1.88-.19-2.83-1.45-3.09-3.25-1.45-7.98-2.5-16.04-4.12-24-.23-1.7-.74-3.13.56-4.57 2.12-2.3 4.72-1.68 7.5-1.57Z" fill="#000"/></g><g transform="translate(-279 -322)"><path d="M476.98 628.88c10.2-.52 20.43 4.48 27.46 11.67 5.06 5.1 8.39 11.32 10.89 18 .52 3.48 2.26 6.4-1.37 8.77-8.33.15-16.63.8-24.96 1-12.3.95-24.72.47-36.92 1.94-1.96-1.87-2.34-3.75-2.6-6.38-.98-8.6 1.23-17.86 6.72-24.66a27.94 27.94 0 0 1 20.78-10.34Z" fill="#000"/><path d="M484.48 635.49c12.63 3.1 22.12 13.94 25.5 26.24-18.27.4-36.53 1.67-54.77 2.21-.7-8.6 1.23-17 7.57-23.16 5.82-5.68 13.94-7.02 21.7-5.29Z" fill="#8F2E45"/></g><g transform="translate(-279 -322)"><path fill-rule="evenodd" clip-rule="evenodd" d="M608 415.8c6.19-.15 12.37-.17 18.55-.18 4.48-.01 8.97-.03 13.45-.1.56.02 1.13.02 1.7.02 3.1 0 6.25.02 9.3.5 2.58.53 5.61 1.94 6.1 4.83a38.9 38.9 0 0 1-1.15 17c-.46 1.76-1.74 2.09-3.35 2.33-3.46.36-6.95.57-10.42.78l-3.76.23c.12 4.28.38 8.64.64 13.02.7 11.72 1.4 23.63-.44 34.8a87.76 87.76 0 0 1-5.73 21.83c-3.11 8.55-9.1 16.19-15.42 22.62-9.83 10.36-22.25 18.39-36.2 21.8a115.5 115.5 0 0 1-33.23 2.17c-9.22-1.58-18.8-3.87-27.06-8.4-10.5-6.05-18.47-15.05-24.78-25.29-8.17-12.62-11.9-27.18-15.47-41.59-.52-2.19-.84-4.45-1.17-6.71-.42-2.83-.83-5.67-1.61-8.37-.48-1.78-2.64-3.07-4.17-3.9-6.7-3.36-16.4-.94-18.99 6.6-.5 2.84-.55 5.75-.6 8.66-.06 2.86-.11 5.73-.59 8.55-2 13.03-4.77 26.14-10.56 38.06-5.55 11.58-11.7 22.03-22.47 29.5-12.88 7.76-28.34 13.44-43.57 11.92-6.86-.15-14.05-1.4-20.36-4.13-6.87-3.71-13.8-8.11-18.84-14.16-10.32-12.28-16.95-27.7-20.8-43.17-1.86-6.83-3.03-13.81-2.96-20.9-1.64.23-3.27.55-4.9.87-2.4.46-4.79.93-7.2 1.16a5.27 5.27 0 0 1-5.36-2.69c-1.96-3.76-2.46-8.38-1.77-12.53l.12-.54c.23-1.1.47-2.3 1.61-2.79 27.43-12.56 55.94-20.6 85.48-26.45 11.24-2.31 22.47-3.81 33.98-3.07a61.95 61.95 0 0 1 28.86 7.05c10.79 4.81 24.5 5.41 35.15-.12 3.04-1.48 4.93-3.68 6.93-5.99a39.5 39.5 0 0 1 3.95-4.14c9.81-9.08 23.1-13.26 36.12-14.8 13.1-2.37 26.26-3 39.52-3.65l2.5-.12c5.54-.15 11.1-.15 16.65-.15 7.44 0 14.89 0 22.32-.36Zm-23 6.26c8.34-.34 16.32-.45 24.15 2.9.65.3 1.37.6 2.11.9 3.17 1.31 6.86 2.83 7.89 5.97 5.81 12.4 8.22 26.56 8.39 40.17.56 12.44-.87 25.5-5.2 37.22-3.72 9.79-10.5 17.11-18.26 23.88-5.21 4.32-11.62 7.5-17.78 10.22-9.15 3.83-19.3 6.8-29.3 6.15-5.8-.34-11.57-1.78-17.2-3.18l-.87-.23c-5.96-1.47-10.69-4.56-15.7-7.85l-.86-.56c-6.8-4.54-12.23-10.46-17.08-16.98-2.77-3.93-4.56-8.67-6.3-13.25l-1.22-3.16c-4.64-11.94-5.98-24.55-5.87-37.28.1-7.74 1.2-16.94 5.51-23.55 5.14-6.46 12.01-12.24 19.83-15.08 9.27-2.8 19.13-4.25 28.78-4.96 11.57-1.28 23.17-1.3 34.65-1.33H585Zm-172.35 22.06c-.9-.02-1.78-.04-2.66-.08-8.61-.87-17.85.94-26.5 2.63l-3.48.68c-2.29.52-4.57 1-6.84 1.5-9.4 2.01-18.63 4-27.68 7.65-.9.36-1.84.71-2.78 1.07-5.77 2.17-12.01 4.53-14.95 10.19-4.84 9.87-3.73 19.61-2.56 29.93l.37 3.3c1.93 11.76 6.83 23.24 13.14 33.32 5.06 8.01 10.9 15.08 19.42 19.57 12.78 7.1 27.95 6.15 41.4 1.57 11.36-4.43 21.76-9.82 28.56-20.38 8.84-14.04 13.92-30.65 15.47-47.12.91-9.38-.1-18.83-2.68-27.88-.46-1.39-.98-2.92-1.89-4.09-5.19-5.6-11.6-9.87-19.19-11.35-2.33-.4-4.76-.46-7.15-.51Z" fill="#000"/></g></g></svg>