<svg xmlns="http://www.w3.org/2000/svg" viewBox="0 0 210 210" fill="none" shape-rendering="auto" width="512" height="512"><metadata xmlns:rdf="http://www.w3.org/1999/02/22-rdf-syntax-ns#" xmlns:xsi="http://www.w3.org/2001/XMLSchema-instance" xmlns:dc="http://purl.org/dc/elements/1.1/" xmlns:dcterms="http://purl.org/dc/terms/"><rdf:RDF><rdf:Description><dc:title>Face Generator</dc:title><dc:creator>The Visual Team</dc:creator><dc:source xsi:type="dcterms:URI">https://www.figma.com/community/file/986078800058673824</dc:source><dcterms:license xsi:type="dcterms:URI">https://creativecommons.org/licenses/by/4.0/</dcterms:license><dc:rights>Remix of „Face Generator” (https://www.figma.com/community/file/986078800058673824) by „The Visual Team”, licensed under „CC BY 4.0” (https://creativecommons.org/licenses/by/4.0/)</dc:rights></rdf:Description></rdf:RDF></metadata><mask id="viewboxMask"><rect width="210" height="210" rx="0" ry="0" x="0" y="0" fill="#fff" /></mask><g mask="url(#viewboxMask)"><rect fill="#da9969" width="210" height="210" x="0" y="0" /><g transform="translate(86.8 138.9) scale(.71856)"><path d="M59 19.1a31 31 0 0 1-31.5 30.6A31 31 0 0 1-3.9 19.1c0-17 4.2-14.9 31.4-14.9 25.2 0 31.5-2 31.5 15Z" fill="#DE8383"/><path fill-rule="evenodd" clip-rule="evenodd" d="M58.8 17.7H-4c.2-14.1 4.1-14 23.5-14l8 .1h7.2c18.4-.2 23.7-.2 24 14Z" fill="#F9F9F9"/><path fill-rule="evenodd" clip-rule="evenodd" d="M53.8 35.7A31.7 31.7 0 0 1 27.7 49c-11 0-20.8-5.5-26.4-13.8a42.7 42.7 0 0 1 26-7.6 42 42 0 0 1 26.5 8Z" fill="#C06E6E"/></g><g transform="translate(2 11) scale(.71856)"><g stroke="#000" stroke-linecap="round"><path d="M184.9 51.7c3.7-3 9.3-8.7 20.4-8.7 9.4 0 17.3 6.4 18.7 8.7M106 51.7c-3.6-3-9.3-8.7-20.3-8.7-9.4 0-17.3 6.4-18.7 8.7" stroke-width="7"/><path d="m73 74 35.5 15.5L73 110M220.5 74 185 89.5l35.5 20.5" stroke-width="4" stroke-linejoin="round"/></g></g><g transform="translate(15 89.2) scale(.71856)"></g><g transform="translate(80.3 79.8) scale(.71856)"><path d="m24.6 39.3-.2 2.6a14.7 14.7 0 1 0 29-.4l-.1-2a14.7 14.7 0 0 1-28.7-.2Z" fill="#000" fill-opacity=".2"/></g></g></svg>