<svg xmlns="http://www.w3.org/2000/svg" viewBox="0 0 200 200" fill="none" shape-rendering="auto" width="512" height="512"><metadata xmlns:rdf="http://www.w3.org/1999/02/22-rdf-syntax-ns#" xmlns:xsi="http://www.w3.org/2001/XMLSchema-instance" xmlns:dc="http://purl.org/dc/elements/1.1/" xmlns:dcterms="http://purl.org/dc/terms/"><rdf:RDF><rdf:Description><dc:title>Fun Emoji Set</dc:title><dc:creator>Davis Uche</dc:creator><dc:source xsi:type="dcterms:URI">https://www.figma.com/community/file/968125295144990435</dc:source><dcterms:license xsi:type="dcterms:URI">https://creativecommons.org/licenses/by/4.0/</dcterms:license><dc:rights>Remix of „Fun Emoji Set” (https://www.figma.com/community/file/968125295144990435) by „Davis Uche”, licensed under „CC BY 4.0” (https://creativecommons.org/licenses/by/4.0/)</dc:rights></rdf:Description></rdf:RDF></metadata><mask id="viewboxMask"><rect width="200" height="200" rx="0" ry="0" x="0" y="0" fill="#fff" /></mask><g mask="url(#viewboxMask)"><rect fill="#d9915b" width="200" height="200" x="0" y="0" /><g transform="matrix(1.5625 0 0 1.5625 37.5 110.94)"><path d="M40.54 30h-.75c-9.7-.22-20.8-5.3-23.7-16.15a1.36 1.36 0 0 1 .44-1.55 1.41 1.41 0 0 1 2.26.86c2.55 9.46 12.42 13.89 21.06 14.08 8.24.16 19.04-3.84 22.46-14.57a1.47 1.47 0 0 1 1.65-.55A1.44 1.44 0 0 1 65 13.5C61.85 23.31 52.3 30 40.54 30Z" fill="#000"/></g><g transform="matrix(1.5625 0 0 1.5625 31.25 59.38)"><path d="M87 13.04C87 5.84 81.18 0 74 0S61 5.84 61 13.04v3.92C61 24.16 66.82 30 74 30s13-5.84 13-13.04v-3.92Z" fill="#000"/><path d="M69.79 9.53a2.29 2.29 0 1 0 0-4.57 2.29 2.29 0 0 0 0 4.57Z" fill="#fff"/><path opacity=".1" d="M74.02 18.35a5.32 5.32 0 1 0 0-10.65 5.32 5.32 0 0 0 0 10.65Z" fill="#fff"/><path d="M26 13.04C26 5.84 20.18 0 13 0S0 5.84 0 13.04v3.92C0 24.16 5.82 30 13 30s13-5.84 13-13.04v-3.92Z" fill="#000"/><path d="M8.79 9.53a2.29 2.29 0 1 0 0-4.57 2.29 2.29 0 0 0 0 4.57Z" fill="#fff"/><path opacity=".1" d="M13.02 18.35a5.32 5.32 0 1 0 0-10.65 5.32 5.32 0 0 0 0 10.65Z" fill="#fff"/></g></g></svg>