<svg xmlns="http://www.w3.org/2000/svg" viewBox="0 0 112 112" fill="none" shape-rendering="auto" width="512" height="512"><metadata xmlns:rdf="http://www.w3.org/1999/02/22-rdf-syntax-ns#" xmlns:xsi="http://www.w3.org/2001/XMLSchema-instance" xmlns:dc="http://purl.org/dc/elements/1.1/" xmlns:dcterms="http://purl.org/dc/terms/"><rdf:RDF><rdf:Description><dc:title>Avataaars</dc:title><dc:creator>Pablo Stanley</dc:creator><dc:source xsi:type="dcterms:URI">https://avataaars.com/</dc:source><dcterms:license xsi:type="dcterms:URI">https://avataaars.com/</dcterms:license><dc:rights>Remix of „Avataaars” (https://avataaars.com/) by „Pablo Stanley”, licensed under „Free for personal and commercial use.” (https://avataaars.com/)</dc:rights></rdf:Description></rdf:RDF></metadata><mask id="viewboxMask"><rect width="112" height="112" rx="0" ry="0" x="0" y="0" fill="#fff" /></mask><g mask="url(#viewboxMask)"><rect fill="#ffdbb4" width="112" height="112" x="0" y="0" /><g transform="translate(2 63)"><rect x="42" y="18" width="24" height="6" rx="3" fill="#000" fill-opacity=".7"/></g><g transform="translate(28 51)"><path fill-rule="evenodd" clip-rule="evenodd" d="M16 8c0 4.42 5.37 8 12 8s12-3.58 12-8" fill="#000" fill-opacity=".16"/></g><g transform="translate(0 19)"><path d="M34.5 30.7 29 25.2l-5.5 5.5c-.4.4-1.1.4-1.6 0l-1.6-1.6c-.4-.4-.4-1.1 0-1.6l5.5-5.5-5.5-5.5c-.4-.5-.4-1.2 0-1.6l1.6-1.6c.4-.4 1.1-.4 1.6 0l5.5 5.5 5.5-5.5c.4-.4 1.1-.4 1.6 0l1.6 1.6c.4.4.4 1.1 0 1.6L32.2 22l5.5 5.5c.4.4.4 1.1 0 1.6l-1.6 1.6c-.4.4-1.1.4-1.6 0ZM88.5 30.7 83 25.2l-5.5 5.5c-.4.4-1.1.4-1.6 0l-1.6-1.6c-.4-.4-.4-1.1 0-1.6l5.5-5.5-5.5-5.5c-.4-.5-.4-1.2 0-1.6l1.6-1.6c.4-.4 1.1-.4 1.6 0l5.5 5.5 5.5-5.5c.4-.4 1.1-.4 1.6 0l1.6 1.6c.4.4.4 1.1 0 1.6L86.2 22l5.5 5.5c.4.4.4 1.1 0 1.6l-1.6 1.6c-.4.4-1.1.4-1.6 0Z" fill="#000" fill-opacity=".6"/></g><g transform="translate(0 11)"><path d="M38.66 11.1c-5 .35-9.92.08-14.92-.13-3.83-.16-7.72-.68-11.37 1.01-.7.32-4.53 2.28-4.44 3.35.07.85 3.93 2.2 4.63 2.44 3.67 1.29 7.18.9 10.95.66 4.64-.27 9.25-.07 13.87-.2 3.12-.1 7.92-.63 9.46-4.4.46-1.14.1-3.42-.36-4.66-.19-.5-.72-.69-1.13-.4a15.04 15.04 0 0 1-6.68 2.32ZM73.34 11.1c5 .35 9.92.08 14.92-.13 3.83-.16 7.72-.68 11.37 1.01.7.32 4.53 2.28 4.44 3.35-.07.85-3.93 2.2-4.63 2.44-3.67 1.29-7.18.9-10.95.66-4.63-.27-9.24-.07-13.86-.2-3.12-.1-7.92-.63-9.46-4.4-.46-1.14-.1-3.42.36-4.66.18-.5.72-.69 1.13-.4a15.04 15.04 0 0 0 6.68 2.32Z" fill-rule="evenodd" clip-rule="evenodd" fill="#000" fill-opacity=".6"/></g></g></svg>