<svg xmlns="http://www.w3.org/2000/svg" viewBox="0 0 200 200" fill="none" shape-rendering="auto" width="512" height="512"><metadata xmlns:rdf="http://www.w3.org/1999/02/22-rdf-syntax-ns#" xmlns:xsi="http://www.w3.org/2001/XMLSchema-instance" xmlns:dc="http://purl.org/dc/elements/1.1/" xmlns:dcterms="http://purl.org/dc/terms/"><rdf:RDF><rdf:Description><dc:title>Fun Emoji Set</dc:title><dc:creator>Davis Uche</dc:creator><dc:source xsi:type="dcterms:URI">https://www.figma.com/community/file/968125295144990435</dc:source><dcterms:license xsi:type="dcterms:URI">https://creativecommons.org/licenses/by/4.0/</dcterms:license><dc:rights>Remix of „Fun Emoji Set” (https://www.figma.com/community/file/968125295144990435) by „Davis Uche”, licensed under „CC BY 4.0” (https://creativecommons.org/licenses/by/4.0/)</dc:rights></rdf:Description></rdf:RDF></metadata><mask id="viewboxMask"><rect width="200" height="200" rx="0" ry="0" x="0" y="0" fill="#fff" /></mask><g mask="url(#viewboxMask)"><rect fill="#059ff2" width="200" height="200" x="0" y="0" /><g transform="matrix(1.5625 0 0 1.5625 37.5 110.94)"><path fill-rule="evenodd" clip-rule="evenodd" d="M4 1c0 44 72 44 72 0-24.3 8.87-48.3 9.13-72 0Z" fill="#fff"/><path fill-rule="evenodd" clip-rule="evenodd" d="M11 21c14.35 15.8 43.35 16 58 .58A140.44 140.44 0 0 1 11 21Z" fill="#DDDBDB"/><path d="M40.04 35a40.08 40.08 0 0 1-25.36-8.46C7.08 20.37 3 11.54 3 1.07A1.07 1.07 0 0 1 3.45.2a1.08 1.08 0 0 1 .97-.12c22.91 8.8 46.85 8.8 71.12 0a1.05 1.05 0 0 1 1.46.99c0 10.47-4.02 19.3-11.68 25.47a40.14 40.14 0 0 1-25.28 8.45ZM5.18 2.58c.81 20.8 18.44 30.31 34.86 30.31 16.41 0 34.11-9.5 34.86-30.35-23.78 8.3-47.22 8.32-69.72.03Z" fill="#000"/><path d="M25 36c4.5 5.16 25.03 5.5 30 0a68.29 68.29 0 0 1-30 0Z" fill="#000" style="mix-blend-mode:soft-light" opacity=".4"/></g><g transform="matrix(1.5625 0 0 1.5625 31.25 59.38)"><path d="M74.38 30a13 13 0 0 0 13-13v-.66C87.38 5.9 75.83-.87 68.45.1c-6.54.84-7.07 5.02-7.07 11.24V17a13.01 13.01 0 0 0 13 13Z" fill="#000"/><path d="M70.2 9.67a2.29 2.29 0 1 0 0-4.58 2.29 2.29 0 0 0 0 4.58Z" fill="#fff"/><path opacity=".1" d="M74.44 18.48a5.32 5.32 0 1 0 0-10.64 5.32 5.32 0 0 0 0 10.64Z" fill="#fff"/><path d="M13.37 30a13.01 13.01 0 0 1-13-13v-.66C.38 5.9 11.93-.87 19.32.1c6.56.84 7.07 5.02 7.07 11.24V17a13 13 0 0 1-13 13Z" fill="#000"/><path d="M9.22 9.67a2.29 2.29 0 1 0 0-4.58 2.29 2.29 0 0 0 0 4.58Z" fill="#fff"/><path opacity=".1" d="M13.46 18.48a5.32 5.32 0 1 0 0-10.64 5.32 5.32 0 0 0 0 10.64Z" fill="#fff"/></g></g></svg>