<svg xmlns="http://www.w3.org/2000/svg" viewBox="0 0 400 400" fill="none" shape-rendering="auto" width="512" height="512"><metadata xmlns:rdf="http://www.w3.org/1999/02/22-rdf-syntax-ns#" xmlns:xsi="http://www.w3.org/2001/XMLSchema-instance" xmlns:dc="http://purl.org/dc/elements/1.1/" xmlns:dcterms="http://purl.org/dc/terms/"><rdf:RDF><rdf:Description><dc:title>Adventurer Neutral</dc:title><dc:creator>Lisa Wischofsky</dc:creator><dc:source xsi:type="dcterms:URI">https://www.figma.com/community/file/1184595184137881796</dc:source><dcterms:license xsi:type="dcterms:URI">https://creativecommons.org/licenses/by/4.0/</dcterms:license><dc:rights>Remix of „Adventurer Neutral” (https://www.figma.com/community/file/1184595184137881796) by „Lisa Wischofsky”, licensed under „CC BY 4.0” (https://creativecommons.org/licenses/by/4.0/)</dc:rights></rdf:Description></rdf:RDF></metadata><mask id="viewboxMask"><rect width="400" height="400" rx="0" ry="0" x="0" y="0" fill="#fff" /></mask><g mask="url(#viewboxMask)"><rect fill="#ecad80" width="400" height="400" x="0" y="0" /><g transform="translate(-279 -322)"><path d="M547.51 424.76a65.19 65.19 0 0 1 74.24 57.74 65.15 65.15 0 0 1-11.25 43.98 65.94 65.94 0 0 1-31.67 24.34 65.9 65.9 0 0 1-37.82 1.79 65.13 65.13 0 0 1-40.76-30.86c-13-22.14-11.12-51.53 4.58-71.84 10.24-13.5 25.83-22.89 42.68-25.14Z" fill="#000"/><path d="M549.22 430.26c14.42-1.74 28.8 1.48 40.84 9.62a59.14 59.14 0 0 1 23.84 32.34 59.2 59.2 0 0 1-2.84 41.72c-6.1 13.63-17.66 24.89-31.56 30.42a58.2 58.2 0 0 1-32.5 3.68 59.7 59.7 0 0 1-36.17-20.89A60.9 60.9 0 0 1 497.24 491a60.5 60.5 0 0 1 13.45-39.31 59.49 59.49 0 0 1 38.53-21.43Z" fill="#fff"/><path d="M381.2 447.1a55.25 55.25 0 0 1 38.86 10.79 55.08 55.08 0 0 1 21.08 34.58c1.23 8.34.97 17.27-1.61 25.34a54.87 54.87 0 0 1-29.73 33.99 55.02 55.02 0 0 1-72.45-26.19c-4.7-10-6.75-21.7-4.67-32.61a54.52 54.52 0 0 1 16.82-31.5 55.1 55.1 0 0 1 31.7-14.4Z" fill="#000"/><path d="M378.22 453.3a49.36 49.36 0 0 1 56.15 35.19c5.15 17-.4 36.5-13.2 48.68-12.66 12.44-32.08 17.22-49 11.63a49.5 49.5 0 0 1-32.71-33.83 49.37 49.37 0 0 1 12.57-47.94 49.68 49.68 0 0 1 26.2-13.73Z" fill="#fff"/><path d="M558.77 456.74c-3.87 4-6.69 8.52-6.65 14.27a20.66 20.66 0 0 0 12.5 20.42c5.98 2.45 12.26 1.32 17.64-2-.16 9.43-2.85 18.5-9.28 25.57-9.4 10.74-24.98 15.07-38.53 10.43-14.35-4.54-24.66-18.38-24.98-33.42-.48-13.95 7.47-27.39 20.04-33.53 9.2-4.73 19.5-4.72 29.26-1.73ZM391.97 467.88c8-1.43 15.68.54 22.74 4.28-3.02 3.08-5.46 6.31-5.5 10.82-.67 7.23 4.56 14.26 11.75 15.48 3.41.68 6.2-.46 9.41-1.4 1.12 12.26-4.48 24.68-14.77 31.54-11.64 7.9-28.4 7-39.25-1.9-9.69-7.6-14.38-20.75-11.76-32.75 2.7-13.31 13.83-24.22 27.37-26.07Z" fill="#000"/><path d="M527.44 489.51c2.29-1 4.8-1.33 6.96.16 3.54 2.29 3.45 7.56.77 10.5-2.67 3.02-7.74 3.2-10.32-.07-2.84-3.42-1.31-8.7 2.6-10.6ZM379.44 495.55c4.76-1.63 9.31 3.59 7.07 8-1.61 3.63-6.93 4.38-9.39 1.31-2.61-2.97-1.48-8 2.32-9.31ZM536.5 504.69c2.48-.77 5.29-.59 7.77.12 6.15 2.42 8.05 11.23 3.58 16.06-3.97 4.75-11.78 4.84-15.7-.02-4.44-5.37-2.44-13.92 4.35-16.16ZM386.51 512.74c3.42-1.11 7.14-.63 9.61 2.16 3.5 3.38 3.36 9.65-.57 12.65-4.05 3.44-10.78 1.72-13.23-2.86-2.58-4.3-.61-10.32 4.19-11.95Z" fill="#fff"/></g><g transform="translate(-279 -322)"><path d="M501.99 384.96c9.9.12 19.87 3.23 28.83 7.31 3.36 1.88 7.05 4 7.3 8.3-5.13-.87-10.13-2.07-15.37-2.3-11.6-.67-23.13 1.37-33.25 7.24-2.54 1.41-4.95 3.26-7.64 4.35-1.8.27-3.92-2-3.94-3.73-.18-5.81 1.95-11.92 6.53-15.7 5.03-4.23 11.15-5.3 17.54-5.47ZM414.03 402.61c5.81.15 10.93 5.3 12.51 10.64.8 2.63-.46 5.72-3.53 5.61-8.82.2-18.2.03-26.81 2.26-7.52 2-14.74 6.7-21.36 10.74-1.22.81-2.57.96-3.98 1.22.33-1.93.64-3.66 1.94-5.2a97.47 97.47 0 0 1 10.74-12.31c5.88-5.17 13-8.96 20.32-11.66a25.26 25.26 0 0 1 10.17-1.29Z" fill="#000"/></g><g transform="translate(-279 -322)"><path d="M521.18 567.25c1.55-.38 3.33-1 4.93-.74 2 .78 2.04 3 1.05 4.64-4.12 2.62-10 2.81-14.26 4.89 3.42 13.46 3.76 27.5 0 40.93-3.26 12.19-10.2 24.02-20.7 31.3a35.76 35.76 0 0 1-24.22 6.54c-11.52-1.1-21.7-8.19-28.53-17.28-9.5-12.6-13.35-27.92-13.48-43.53.34-5.62.98-11.21 2.11-16.73-2.4-.78-5.59-1.13-7.5-2.84-.56-1.23-.2-2.85-.25-4.18 4.52-.02 8.3 1.66 12.66 2.56 29.55 5.95 59.5 3.04 88.2-5.56Z" fill="#000"/><path d="M506.94 577.11c5.23 17.71 3.27 38.43-6.69 54.17-4.13 6.48-9.68 11.96-16.73 15.17a29.31 29.31 0 0 1-25.4-.56c-8.06-4.02-14.57-11.42-18.7-19.32-7.58-14.67-9.44-32-5.52-48.03 10.46 2.5 21.07 3.05 31.77 3.27-1 6.74-.96 13.39-1.18 20.18 0 1.9-.16 4.1.5 5.92 1.09 1.71 4.65 1.2 4.75-1.06.58-8.4-.13-16.75 1.5-25.13 12-.25 24-2.21 35.7-4.62Z" fill="#EA869E"/></g><g transform="translate(-279 -322)"></g></g></svg>