<svg xmlns="http://www.w3.org/2000/svg" viewBox="0 0 210 210" fill="none" shape-rendering="auto" width="512" height="512"><metadata xmlns:rdf="http://www.w3.org/1999/02/22-rdf-syntax-ns#" xmlns:xsi="http://www.w3.org/2001/XMLSchema-instance" xmlns:dc="http://purl.org/dc/elements/1.1/" xmlns:dcterms="http://purl.org/dc/terms/"><rdf:RDF><rdf:Description><dc:title>Face Generator</dc:title><dc:creator>The Visual Team</dc:creator><dc:source xsi:type="dcterms:URI">https://www.figma.com/community/file/986078800058673824</dc:source><dcterms:license xsi:type="dcterms:URI">https://creativecommons.org/licenses/by/4.0/</dcterms:license><dc:rights>Remix of „Face Generator” (https://www.figma.com/community/file/986078800058673824) by „The Visual Team”, licensed under „CC BY 4.0” (https://creativecommons.org/licenses/by/4.0/)</dc:rights></rdf:Description></rdf:RDF></metadata><mask id="viewboxMask"><rect width="210" height="210" rx="0" ry="0" x="0" y="0" fill="#fff" /></mask><g mask="url(#viewboxMask)"><rect fill="#ffdfbf" width="210" height="210" x="0" y="0" /><g transform="translate(86.8 138.9) scale(.71856)"><path d="M-22.5 25a17 17 0 0 1 17-16.9h65.6a17 17 0 0 1 0 34H-5.5a17 17 0 0 1-17-17Z" fill="#F9F9F9"/></g><g transform="translate(2 11) scale(.71856)"><path d="M78.2 51.4c3.1-2.5 8-7.4 17.3-7.4 8 0 14.6 5.4 15.8 7.4M179.2 51.4c3-2.5 7.9-7.4 17.2-7.4 8 0 14.7 5.4 15.9 7.4" stroke="#000" stroke-width="3.7" stroke-linecap="round"/><rect x="72" y="64.7" width="43.3" height="52.9" rx="14.4" fill="#fff"/><rect x="173" y="64.7" width="43.3" height="52.9" rx="14.4" fill="#fff"/><path d="M184 76.7a12 12 0 0 1 12.2-12l10 .1a12 12 0 0 1 11.8 12V106a12 12 0 0 1-12 12h-10a12 12 0 0 1-12-12V76.7ZM83 76.7a12 12 0 0 1 12.2-12l10 .1a12 12 0 0 1 11.8 12V106a12 12 0 0 1-12 12H95a12 12 0 0 1-12-12V76.7Z" fill="#757575"/><rect x="90.6" y="76.2" width="18.6" height="29" rx="9.3" fill="#000"/><rect x="191.6" y="76.2" width="18.6" height="29" rx="9.3" fill="#000"/></g><g transform="translate(15 89.2) scale(.71856)"></g><g transform="translate(80.3 79.8) scale(.71856)"><path d="M37 14v27c-3.7.7-11 4-11 10.5 0 8.2 7.3 10.5 11 11.7" stroke="#000" stroke-opacity=".5" stroke-width="4" stroke-linecap="round" stroke-linejoin="round"/></g></g></svg>