<svg xmlns="http://www.w3.org/2000/svg" viewBox="0 0 400 400" fill="none" shape-rendering="auto" width="512" height="512"><metadata xmlns:rdf="http://www.w3.org/1999/02/22-rdf-syntax-ns#" xmlns:xsi="http://www.w3.org/2001/XMLSchema-instance" xmlns:dc="http://purl.org/dc/elements/1.1/" xmlns:dcterms="http://purl.org/dc/terms/"><rdf:RDF><rdf:Description><dc:title>Adventurer Neutral</dc:title><dc:creator>Lisa Wischofsky</dc:creator><dc:source xsi:type="dcterms:URI">https://www.figma.com/community/file/1184595184137881796</dc:source><dcterms:license xsi:type="dcterms:URI">https://creativecommons.org/licenses/by/4.0/</dcterms:license><dc:rights>Remix of „Adventurer Neutral” (https://www.figma.com/community/file/1184595184137881796) by „Lisa Wischofsky”, licensed under „CC BY 4.0” (https://creativecommons.org/licenses/by/4.0/)</dc:rights></rdf:Description></rdf:RDF></metadata><mask id="viewboxMask"><rect width="400" height="400" rx="0" ry="0" x="0" y="0" fill="#fff" /></mask><g mask="url(#viewboxMask)"><rect fill="#f2d3b1" width="400" height="400" x="0" y="0" /><g transform="translate(-279 -322)"><path d="M551.26 424.28c22.14-1.95 44.44 7.9 57.71 25.75a66.1 66.1 0 0 1 13.2 39.97c-.27 12.75-4.02 25.34-11.26 35.89-8.84 13.1-22.73 23-38.11 26.7a65.2 65.2 0 0 1-73.29-32.14c-7.12-12.81-9.26-27.78-6.96-42.2a65.29 65.29 0 0 1 58.72-53.98Z" fill="#000"/><path d="M549.27 430.26a59.62 59.62 0 0 1 44.29 12.15c14.44 11.16 23.28 29.33 22.8 47.6.05 22.95-14.44 44.84-35.55 53.82-10.6 4.63-22.39 6.3-33.8 4.22a59.6 59.6 0 0 1-40.36-26.68 61.43 61.43 0 0 1-9.37-29.31 60.42 60.42 0 0 1 13.41-40.36 59.52 59.52 0 0 1 38.58-21.43Z" fill="#fff"/><path d="M381.25 447.09a54.98 54.98 0 0 1 58.67 39.98 55 55 0 0 1-26.76 63.08 54.6 54.6 0 0 1-33.18 6.15c-15.78-1.82-30.34-11-39-24.28-5.54-8.32-8.46-18.03-9.11-27.97-.31-12.55 3.4-25.11 11-35.17a55.12 55.12 0 0 1 38.38-21.8Z" fill="#000"/><path d="M378.26 453.29a49.1 49.1 0 0 1 32.85 5.6c17.73 9.8 28.17 31.01 24.42 51.02A49.54 49.54 0 0 1 391 550.94c-20.15 1.85-40.17-9.84-48.64-28.18a49.26 49.26 0 0 1 5.04-50.33 49.4 49.4 0 0 1 30.86-19.14Z" fill="#fff"/><path d="M526.47 467.49c12.02-2.86 24.89 4.24 29.36 15.65 2.2 6 2.32 12.7-.08 18.66a25.56 25.56 0 0 1-19.7 15.97 25.68 25.68 0 0 1-22.47-7.35 25.7 25.7 0 0 1-5.46-27.34 25.5 25.5 0 0 1 18.35-15.59ZM398.26 478.35c12.27-2.56 24.75 5.81 27.12 18.08.66 5.63.55 11.35-2.68 16.22-4.79 8-14.36 12.76-23.63 11.14-10.66-1.7-19-10.97-19.33-21.79a23.04 23.04 0 0 1 18.52-23.65Z" fill="#000"/></g><g transform="translate(-279 -322)"><path d="M582.3 370.69c14.06 7.04 27.75 17.35 36.57 30.53a2.98 2.98 0 0 1-4.23 4.15 100.16 100.16 0 0 0-34.46-13.42c-35.66-6.86-74.47 5.14-98.23 33.03-1.67 2.05-4.03 3.59-6.28 1.25-1.68-2.6-2.27-6.05-3.3-8.95-1.92 4.71-3.86 9.5-6.2 14.02-1.56 3.23-6 1.12-7.04-1.42-3.06-6.88-6.2-13.74-9.02-20.73 0 5.63 0 11.25.04 16.88-.19 2.06.27 4.35-2.1 5.22a5.55 5.55 0 0 1-5.31-2.91c-3.26-5.88-6.24-11.93-9.5-17.82.97 5.5 2.61 11 3.11 16.55.12 1.94-2.28 3.44-4.02 2.36-18.54-7.4-38.31-11.5-58.33-10.1-12.5.93-26.14 4.64-36 12.69-3.09 2.34-5.2 5.5-7.97 8.15-1.65.72-3.27-.24-4.88-.65.08-1.9.11-3.75.73-5.58 6.86-20.67 20.43-39.8 39.98-50.1 13.56-7.32 30.17-9.03 44.62-3.35 11.89 4.55 20.95 13.32 27.67 23.95 2.31-2.84 4.25-6.03 6.75-8.7 1.62-1.57 4.62-1.56 5.63.7 2.52 5.16 4.68 10.52 6.98 15.8 1.5-7.43 3.06-14.82 4.43-22.25.33-1.5.6-3.23 1.58-4.45 1.65-1.25 2.9-.28 4.65.1l.8 2.56c2.08-4.75 4.75-9.11 8.44-12.78 9.1-9.43 21.82-14.25 34.5-16.48 23.85-3.69 48.86 1.12 70.39 11.75Z" fill="#000"/></g><g transform="translate(-279 -322)"><path d="M462.23 552.76c5.89 1.34 11.98 4.52 15.69 9.38 1.25 2.25.03 5-2.77 4.63-2.26-1.24-3.96-3.38-6.13-4.8-4.31-2.87-9.86-4.48-15.03-3.68-2.57.45-5.36 1.6-6.83 3.86-1.53 2.1-1.3 4.76-.4 7.05 1.72 4.45 6 7.88 10.25 9.74 2.3 1.06 5.25 1.28 7.3 2.75 1.68 1.8.57 4.36-1.74 4.78-4.61 1.03-8.66 2.66-11.62 6.5-5.5 6.69-4.73 16.7 1.35 22.75 6.13 6.67 17.2 7.5 24.26 1.85 2.43-1.87 3.59-4.35 5.54-6.58 2.97-1.44 5.07 1.04 3.97 3.9-4.62 9.78-16.97 14.5-27.13 11.4a23.97 23.97 0 0 1-17.26-19.26c-1.55-9.44 3.19-18.64 11.31-23.48-5.73-2.95-10.81-7.86-12.37-14.28-1.54-5.3.8-11.27 5.45-14.2 4.69-3.25 10.76-3.16 16.16-2.31Z" fill="#000"/></g><g transform="translate(-279 -322)"></g></g></svg>