<svg xmlns="http://www.w3.org/2000/svg" viewBox="0 0 210 210" fill="none" shape-rendering="auto" width="512" height="512"><metadata xmlns:rdf="http://www.w3.org/1999/02/22-rdf-syntax-ns#" xmlns:xsi="http://www.w3.org/2001/XMLSchema-instance" xmlns:dc="http://purl.org/dc/elements/1.1/" xmlns:dcterms="http://purl.org/dc/terms/"><rdf:RDF><rdf:Description><dc:title>Face Generator</dc:title><dc:creator>The Visual Team</dc:creator><dc:source xsi:type="dcterms:URI">https://www.figma.com/community/file/986078800058673824</dc:source><dcterms:license xsi:type="dcterms:URI">https://creativecommons.org/licenses/by/4.0/</dcterms:license><dc:rights>Remix of „Face Generator” (https://www.figma.com/community/file/986078800058673824) by „The Visual Team”, licensed under „CC BY 4.0” (https://creativecommons.org/licenses/by/4.0/)</dc:rights></rdf:Description></rdf:RDF></metadata><mask id="viewboxMask"><rect width="210" height="210" rx="0" ry="0" x="0" y="0" fill="#fff" /></mask><g mask="url(#viewboxMask)"><rect fill="#a66637" width="210" height="210" x="0" y="0" /><g transform="translate(86.8 138.9) scale(.71856)"><path d="M59.8 28.9a31 31 0 1 1-62 0 31 31 0 0 1 62 0Z" fill="#DE8383"/><path fill-rule="evenodd" clip-rule="evenodd" d="M5.6 49.5a31 31 0 0 1 47.9-2 31 31 0 0 1-47.9 2Z" fill="#C06E6E"/><path fill-rule="evenodd" clip-rule="evenodd" d="M57.4 16.4H.4a31 31 0 0 1 57 0Z" fill="#F9F9F9"/></g><g transform="translate(2 11) scale(.71856)"><g stroke="#000" stroke-linecap="round"><path d="M68 60.1c4.3-3.3 11-10 23.8-10.1a30 30 0 0 1 21.8 10.1" stroke-width="8.3"/><path d="M68 97.1c4.3-3.3 11-10 23.8-10.1a30 30 0 0 1 21.8 10.1" stroke-width="4.1"/><path d="M177 60.1c4.3-3.3 11-10 23.8-10.1a30 30 0 0 1 21.8 10.1" stroke-width="8.3"/><path d="M177 97.1c4.3-3.3 11-10 23.8-10.1a30 30 0 0 1 21.8 10.1" stroke-width="4.1"/></g></g><g transform="translate(15 89.2) scale(.71856)"><g fill="#F88888"><rect x="11" y="16" width="56.3" height="43.4" rx="21.7"/><rect x="191" y="16" width="56.3" height="43.4" rx="21.7"/></g></g><g transform="translate(80.3 79.8) scale(.71856)"><path d="m24.6 39.3-.2 2.6a14.7 14.7 0 1 0 29-.4l-.1-2a14.7 14.7 0 0 1-28.7-.2Z" fill="#000" fill-opacity=".2"/></g></g></svg>